<svg width="54" height="54" viewBox="0 0 54 54" fill="none" xmlns="http://www.w3.org/2000/svg">
<rect width="54" height="54" rx="27" fill="#2BC155"/>
<g clip-path="url(#clip0_18_1036)">
<path d="M27 19.84C23.5985 19.84 20.6534 22.2024 19.9156 25.5229L17.4991 36.397C17.4814 36.4768 17.4724 36.5583 17.4724 36.64C17.4724 37.2585 17.9739 37.76 18.5924 37.76H35.4076C35.4893 37.76 35.5708 37.751 35.6505 37.7333C36.2544 37.5991 36.6351 37.0008 36.5009 36.397L34.0844 25.5229C33.3466 22.2024 30.4015 19.84 27 19.84ZM27 17.6C31.4514 17.6 35.3055 20.6916 36.2711 25.037L38.6876 35.9111C39.0901 37.7226 37.948 39.5174 36.1365 39.92C35.8972 39.9731 35.6527 40 35.4076 40H18.5924C16.7367 40 15.2324 38.4956 15.2324 36.64C15.2324 36.3948 15.2593 36.1504 15.3124 35.9111L17.7289 25.037C18.6945 20.6916 22.5486 17.6 27 17.6Z" fill="white"/>
<path d="M29.2401 24.32C29.8586 24.32 30.3601 24.8214 30.3601 25.44C30.3601 26.0585 29.8586 26.56 29.2401 26.56H26.4401C26.1308 26.56 25.8801 26.8107 25.8801 27.12C25.8801 27.4292 26.1308 27.68 26.4401 27.68H27.5601C29.1065 27.68 30.3601 28.9336 30.3601 30.48C30.3601 32.0264 29.1065 33.28 27.5601 33.28H24.7601C24.1415 33.28 23.6401 32.7785 23.6401 32.16C23.6401 31.5414 24.1415 31.04 24.7601 31.04H27.5601C27.8694 31.04 28.1201 30.7892 28.1201 30.48C28.1201 30.1707 27.8694 29.92 27.5601 29.92H26.4401C24.8937 29.92 23.6401 28.6664 23.6401 27.12C23.6401 25.5736 24.8937 24.32 26.4401 24.32H29.2401Z" fill="white"/>
<path d="M25.8801 23.2C25.8801 22.5814 26.3816 22.08 27.0001 22.08C27.6187 22.08 28.1201 22.5814 28.1201 23.2V25.44C28.1201 26.0586 27.6187 26.56 27.0001 26.56C26.3816 26.56 25.8801 26.0586 25.8801 25.44V23.2Z" fill="white"/>
<path d="M28.1201 34.4C28.1201 35.0186 27.6187 35.52 27.0001 35.52C26.3816 35.52 25.8801 35.0186 25.8801 34.4V32.16C25.8801 31.5414 26.3816 31.04 27.0001 31.04C27.6187 31.04 28.1201 31.5414 28.1201 32.16V34.4Z" fill="white"/>
<path d="M25.7999 18.304C26.0297 18.8784 25.7503 19.5302 25.176 19.7599C24.6017 19.9896 23.9499 19.7103 23.7201 19.136L21.4801 13.536C21.1161 12.626 22.014 11.7204 22.9271 12.0766C23.7658 12.4037 24.3908 12.56 24.76 12.56C24.852 12.56 24.9281 12.5404 25.0945 12.4697C25.1386 12.4509 25.1905 12.428 25.3121 12.3742C25.8914 12.1203 26.349 12 27 12C27.6496 12 28.1144 12.1206 28.6956 12.3721C28.8431 12.4366 28.902 12.4623 28.9541 12.4838C29.0977 12.5429 29.1668 12.56 29.24 12.56C29.5877 12.56 30.2184 12.4023 31.0811 12.0735C31.9931 11.7258 32.8824 12.6298 32.5199 13.536L30.2799 19.136C30.0502 19.7103 29.3984 19.9896 28.8241 19.7599C28.2498 19.5302 27.9704 18.8784 28.2002 18.304L29.6095 14.7807C29.4807 14.7936 29.3576 14.8 29.24 14.8C28.8313 14.8 28.4925 14.7162 28.1012 14.5551C28.0239 14.5232 27.9393 14.4863 27.8063 14.4279C27.482 14.2877 27.2983 14.24 27 14.24C26.7046 14.24 26.5312 14.2856 26.2113 14.4258C26.1014 14.4745 26.0317 14.5052 25.9705 14.5313C25.551 14.7095 25.2001 14.8 24.76 14.8C24.6418 14.8 24.5188 14.7939 24.391 14.7816L25.7999 18.304Z" fill="white"/>
</g>
<defs>
<clipPath id="clip0_18_1036">
<rect width="28" height="28" fill="white" transform="translate(13 12)"/>
</clipPath>
</defs>
</svg>
